<svg width="151" height="44" viewBox="0 0 151 44" fill="none" xmlns="http://www.w3.org/2000/svg">
<path d="M5.77555 17.9601L9.71651 0H12.0675L13.3449 1.53285L9.14575 19.7507H6.55015L5.77555 17.9601ZM4.72915 0L8.05859 18.0958L7.20245 19.7507H4.19916L0 0H4.72915ZM15.5056 18.0008L18.8079 0H23.5235L19.3243 19.7507H16.3346L15.5056 18.0008ZM13.7662 0L17.8023 18.0686L16.9869 19.7507H14.3913L10.097 1.50572L11.4288 0H13.7662Z" fill="#209B90"/>
<path d="M29.9649 17.9601L33.9059 0H36.2569L37.5343 1.53285L33.3351 19.7507H30.7395L29.9649 17.9601ZM28.9185 0L32.2479 18.0958L31.3918 19.7507H28.3885L24.1894 0H28.9185ZM39.695 18.0008L42.9973 0H47.7128L43.5137 19.7507H40.524L39.695 18.0008ZM37.9555 0L41.9916 18.0686L41.1763 19.7507H38.5807L34.2864 1.50572L35.6181 0H37.9555Z" fill="#209B90"/>
<path d="M54.1543 17.9601L58.0952 0H60.4462L61.7236 1.53285L57.5245 19.7507H54.9289L54.1543 17.9601ZM53.1079 0L56.4373 18.0958L55.5812 19.7507H52.5779L48.3787 0H53.1079ZM63.8844 18.0008L67.1866 0H71.9022L67.703 19.7507H64.7133L63.8844 18.0008ZM62.1449 0L66.181 18.0686L65.3656 19.7507H62.77L58.4757 1.50572L59.8075 0H62.1449Z" fill="#209B90"/>
<path d="M35.421 19.5811C35.4074 18.9164 35.3463 18.3399 35.2376 17.8516C35.1424 17.3632 35.0133 16.9427 34.8503 16.59C34.7008 16.2373 34.5241 15.9457 34.3203 15.7151C34.13 15.4845 33.933 15.2946 33.7291 15.1454C33.2535 14.8062 32.7167 14.6434 32.1188 14.657C31.7382 14.7113 31.3306 14.8741 30.8957 15.1454C30.4744 15.4031 30.0396 15.7422 29.5911 16.1627C29.1427 16.5697 28.6874 17.0377 28.2254 17.5667C27.7769 18.0822 27.342 18.618 26.9208 19.1742C26.4995 19.7168 26.0986 20.2594 25.7181 20.802C25.3376 21.3446 24.9978 21.8397 24.6989 22.2873C24.7125 23.3047 24.7328 24.3085 24.76 25.2988C24.7872 26.2755 24.8076 27.1911 24.8212 28.0457C24.8484 28.8867 24.8755 29.6532 24.9027 30.345C24.9435 31.0232 24.9843 31.5726 25.025 31.9931L20.6424 32.5425C20.5609 30.2093 20.4861 28.1 20.4182 26.2144C20.3502 24.3153 20.2891 22.6197 20.2347 21.1275C20.1804 19.6354 20.1328 18.3196 20.092 17.1801C20.0648 16.0406 20.0377 15.0572 20.0105 14.2297C19.9561 12.2899 19.9154 10.852 19.8882 9.91603L24.5358 9.83464C24.5494 10.6621 24.5562 11.5099 24.5562 12.3781C24.5698 13.2327 24.5834 14.0195 24.597 14.7384C24.6105 15.5794 24.6173 16.4001 24.6173 17.2005C25.0114 16.5765 25.4871 15.8914 26.0442 15.1454C26.615 14.3993 27.2537 13.6939 27.9604 13.0292C28.6806 12.3645 29.462 11.788 30.3046 11.2997C31.1607 10.7978 32.0712 10.4858 33.036 10.3637C34.1232 10.3094 35.1152 10.54 36.0122 11.0555C36.3927 11.2725 36.7664 11.5642 37.1333 11.9304C37.5138 12.2831 37.8603 12.7443 38.1729 13.3141C38.499 13.8702 38.7708 14.5417 38.9883 15.3285C39.2057 16.1017 39.3552 17.0173 39.4367 18.0754L35.421 19.5811Z" fill="#2B2C2E"/>
<path d="M52.5846 29.1648C53.3048 29.1648 54.0183 29.0563 54.7249 28.8393C55.4316 28.6086 56.0839 28.2831 56.6818 27.8626C57.2798 27.4285 57.7962 26.8927 58.231 26.2551C58.6795 25.6176 59.0056 24.8783 59.2095 24.0372L63.1436 24.8308C62.7631 26.0652 62.2264 27.1843 61.5333 28.1881C60.8402 29.1919 60.0316 30.0533 59.1076 30.7723C58.1835 31.4912 57.1643 32.0474 56.0499 32.4408C54.9492 32.8342 53.794 33.0308 52.5846 33.0308C50.7908 33.0308 49.2008 32.7595 47.8147 32.2169C46.4285 31.6743 45.2598 30.9079 44.3086 29.9177C43.3573 28.9274 42.6303 27.7337 42.1274 26.3365C41.6382 24.9393 41.3936 23.3793 41.3936 21.6566C41.3936 19.9609 41.679 18.3806 42.2497 16.9156C42.8341 15.437 43.6291 14.1551 44.6347 13.0699C45.6403 11.9847 46.8226 11.1301 48.1816 10.5061C49.5405 9.88212 51.0082 9.57012 52.5846 9.57012C53.9979 9.57012 55.3297 9.84821 56.5799 10.4044C57.8301 10.947 58.9377 11.7066 59.9025 12.6833C60.8674 13.6464 61.6624 14.7859 62.2875 16.1017C62.9126 17.4175 63.3067 18.8418 63.4698 20.3747L45.817 22.9995C45.9121 23.9626 46.1499 24.8308 46.5304 25.604C46.911 26.3636 47.3934 27.008 47.9777 27.537C48.5757 28.066 49.2619 28.473 50.0365 28.7579C50.8247 29.0292 51.6741 29.1648 52.5846 29.1648ZM58.2106 17.7498L58.0883 17.3632C57.5719 16.0203 56.8585 14.969 55.948 14.2094C55.0511 13.4497 53.9299 13.0699 52.5846 13.0699C52.0138 13.0699 51.3887 13.1716 50.7092 13.3751C50.0298 13.565 49.3707 13.8974 48.732 14.3721C48.0932 14.8469 47.5157 15.4845 46.9993 16.2848C46.4965 17.0716 46.1431 18.0551 45.9393 19.2352L58.2106 17.7498Z" fill="#2B2C2E"/>
<path d="M88.7259 15.7761L85.3421 17.8312L85.3014 17.7091C84.948 17.0173 84.52 16.4001 84.0172 15.8575C83.5143 15.3014 82.9504 14.8334 82.3253 14.4535C81.7001 14.0602 81.0275 13.7617 80.3072 13.5582C79.6006 13.3548 78.8599 13.253 78.0853 13.253C76.971 13.253 75.9246 13.4633 74.9461 13.8838C73.9813 14.3043 73.1319 14.8808 72.3981 15.6133C71.6779 16.3459 71.1071 17.2072 70.6858 18.1975C70.2646 19.1742 70.0539 20.2187 70.0539 21.331C70.0539 22.4298 70.2646 23.4675 70.6858 24.4442C71.1071 25.4209 71.6779 26.2755 72.3981 27.008C73.1319 27.7405 73.9813 28.317 74.9461 28.7375C75.9246 29.158 76.971 29.3683 78.0853 29.3683C78.8056 29.3683 79.5054 29.2733 80.1849 29.0834C80.8644 28.8935 81.5031 28.629 82.101 28.2899C82.7126 27.9372 83.2697 27.5167 83.7725 27.0283C84.2754 26.5264 84.7034 25.9702 85.0568 25.3598L85.1383 25.2377L88.6852 27.2521L88.6444 27.3742C88.1144 28.256 87.4689 29.0495 86.7079 29.7549C85.9469 30.4603 85.1043 31.0639 84.1802 31.5658C83.2697 32.0813 82.2913 32.4747 81.2449 32.746C80.2121 33.0173 79.1589 33.1529 78.0853 33.1529C76.5497 33.1529 75.0617 32.8545 73.6212 32.2576C72.1943 31.6608 70.9169 30.8333 69.7889 29.7752C68.6746 28.7172 67.7777 27.4692 67.0982 26.0313C66.4323 24.5934 66.0994 23.0266 66.0994 21.331C66.0994 20.3136 66.2353 19.3166 66.5071 18.3399C66.7924 17.3497 67.1865 16.4137 67.6893 15.532C68.2057 14.6502 68.8241 13.8363 69.5443 13.0903C70.2781 12.3442 71.0867 11.7066 71.97 11.1776C72.8534 10.635 73.8114 10.2145 74.8442 9.91603C75.877 9.60404 76.9574 9.44804 78.0853 9.44804C79.2676 9.44804 80.3888 9.59047 81.4487 9.87534C82.5223 10.1602 83.5143 10.5739 84.4248 11.1165C85.3353 11.6456 86.1507 12.2967 86.871 13.0699C87.5912 13.8431 88.1959 14.7181 88.6852 15.6947L88.7259 15.7761Z" fill="#2B2C2E"/>
<path d="M98.3881 3.91351C98.3881 4.30689 98.3065 4.67993 98.1435 5.03262C97.994 5.38531 97.7833 5.69053 97.5116 5.94826C97.2534 6.206 96.9476 6.40947 96.5943 6.55869C96.2409 6.7079 95.8604 6.78251 95.4527 6.78251C95.0586 6.78251 94.6849 6.7079 94.3316 6.55869C93.9919 6.40947 93.6861 6.206 93.4143 5.94826C93.1561 5.69053 92.9523 5.38531 92.8028 5.03262C92.6533 4.67993 92.5786 4.30689 92.5786 3.91351C92.5786 3.50656 92.6533 3.12673 92.8028 2.77404C92.9523 2.42135 93.1561 2.11614 93.4143 1.8584C93.6861 1.5871 93.9919 1.37685 94.3316 1.22763C94.6849 1.06485 95.0586 0.983459 95.4527 0.983459C95.8604 0.983459 96.2409 1.06485 96.5943 1.22763C96.9476 1.37685 97.2534 1.5871 97.5116 1.8584C97.7833 2.11614 97.994 2.42135 98.1435 2.77404C98.3065 3.12673 98.3881 3.50656 98.3881 3.91351ZM97.43 11.0758C97.3892 13.0156 97.3485 14.7994 97.3077 16.4272C97.2805 18.0415 97.2534 19.5133 97.2262 20.8427C97.199 22.172 97.1718 23.3658 97.1446 24.4238C97.131 25.4683 97.1175 26.384 97.1039 27.1708C97.0631 29.0427 97.0427 30.5145 97.0427 31.5862H92.8639C92.8911 30.1211 92.9251 28.378 92.9659 26.3569C92.993 24.6205 93.027 22.4976 93.0678 19.9881C93.1221 17.4785 93.1697 14.5621 93.2105 11.2386L97.43 11.0758Z" fill="#2B2C2E"/>
<path d="M107.826 9.69221L107.785 12.663C108.56 11.9033 109.368 11.32 110.211 10.9131C111.054 10.4925 111.828 10.1738 112.535 9.95673C113.364 9.71256 114.172 9.55656 114.961 9.48873C115.885 9.48873 116.802 9.62438 117.712 9.89569C118.623 10.1534 119.486 10.5265 120.301 11.0148C121.117 11.4896 121.871 12.0661 122.564 12.7443C123.257 13.4226 123.848 14.1822 124.337 15.0233C124.827 15.8507 125.2 16.746 125.458 17.7091C125.73 18.6723 125.846 19.6829 125.805 20.7409C125.764 21.9075 125.588 23.0063 125.275 24.0372C124.962 25.0682 124.548 26.0177 124.032 26.8859C123.529 27.7405 122.938 28.5137 122.258 29.2055C121.579 29.8973 120.852 30.4806 120.077 30.9554C119.316 31.4302 118.521 31.7896 117.692 32.0338C116.877 32.2916 116.061 32.4204 115.246 32.4204C114.417 32.3933 113.574 32.2712 112.718 32.0542C111.971 31.8643 111.149 31.5658 110.252 31.1589C109.355 30.7655 108.472 30.1958 107.602 29.4497L107.479 43.2453L103.688 43.3267L103.341 9.87534L107.826 9.69221ZM121.218 21.1275C121.273 20.1373 121.144 19.1877 120.831 18.2789C120.532 17.3565 120.077 16.5493 119.465 15.8575C118.867 15.1657 118.147 14.6163 117.305 14.2094C116.462 13.8024 115.538 13.6057 114.532 13.6193C113.69 13.6329 112.895 13.7888 112.147 14.0873C111.414 14.3721 110.748 14.7587 110.15 15.2471C109.565 15.7219 109.063 16.278 108.641 16.9156C108.234 17.5531 107.928 18.2178 107.724 18.9096L107.683 22.7757C107.887 23.671 108.207 24.4577 108.641 25.136C109.076 25.8143 109.586 26.384 110.17 26.8452C110.768 27.2928 111.414 27.6387 112.107 27.8829C112.8 28.1135 113.5 28.2356 114.206 28.2492C115.158 28.2763 116.048 28.1067 116.877 27.7405C117.719 27.3742 118.453 26.8655 119.078 26.2144C119.703 25.5633 120.199 24.8037 120.566 23.9355C120.947 23.0673 121.164 22.1313 121.218 21.1275Z" fill="#2B2C2E"/>
<path d="M140.115 29.1648C140.835 29.1648 141.548 29.0563 142.255 28.8393C142.962 28.6086 143.614 28.2831 144.212 27.8626C144.81 27.4285 145.326 26.8927 145.761 26.2551C146.21 25.6176 146.536 24.8783 146.74 24.0372L150.674 24.8308C150.293 26.0652 149.756 27.1843 149.063 28.1881C148.37 29.1919 147.562 30.0533 146.638 30.7723C145.714 31.4912 144.694 32.0474 143.58 32.4408C142.479 32.8342 141.324 33.0308 140.115 33.0308C138.321 33.0308 136.731 32.7595 135.345 32.2169C133.959 31.6743 132.79 30.9079 131.839 29.9177C130.887 28.9274 130.16 27.7337 129.658 26.3365C129.168 24.9393 128.924 23.3793 128.924 21.6566C128.924 19.9609 129.209 18.3806 129.78 16.9156C130.364 15.437 131.159 14.1551 132.165 13.0699C133.17 11.9847 134.353 11.1301 135.712 10.5061C137.071 9.88212 138.538 9.57012 140.115 9.57012C141.528 9.57012 142.86 9.84821 144.11 10.4044C145.36 10.947 146.468 11.7066 147.433 12.6833C148.398 13.6464 149.193 14.7859 149.818 16.1017C150.443 17.4175 150.837 18.8418 151 20.3747L133.347 22.9995C133.442 23.9626 133.68 24.8308 134.061 25.604C134.441 26.3636 134.924 27.008 135.508 27.537C136.106 28.066 136.792 28.473 137.567 28.7579C138.355 29.0292 139.204 29.1648 140.115 29.1648ZM145.741 17.7498L145.618 17.3632C145.102 16.0203 144.389 14.969 143.478 14.2094C142.581 13.4497 141.46 13.0699 140.115 13.0699C139.544 13.0699 138.919 13.1716 138.239 13.3751C137.56 13.565 136.901 13.8974 136.262 14.3721C135.623 14.8469 135.046 15.4845 134.529 16.2848C134.027 17.0716 133.673 18.0551 133.469 19.2352L145.741 17.7498Z" fill="#2B2C2E"/>
</svg>
