<svg width="45" height="37" viewBox="0 0 45 37" fill="none" xmlns="http://www.w3.org/2000/svg">
<path d="M14.8768 22.0553L14.4237 20.6254L14.4237 20.6254L14.8768 22.0553ZM29.8631 22.0553L29.41 23.4852L29.41 23.4852L29.8631 22.0553ZM36.1661 25.2745L35.2546 26.4658L35.2546 26.4658L36.1661 25.2745ZM40.31 30.0123L38.9909 30.7264L38.9909 30.7264L40.31 30.0123ZM41.7399 35.5H40.2399V37H41.7399V35.5ZM42.7399 35.5V37H44.2399V35.5H42.7399ZM41.1894 29.5362L39.8703 30.2503L39.8703 30.2503L41.1894 29.5362ZM36.7737 24.4803L37.6851 23.2889L37.6851 23.2889L36.7737 24.4803ZM30.1652 21.102L30.6183 19.6721L30.6183 19.6721L30.1652 21.102ZM14.5747 21.102L15.0279 22.5319L15.0279 22.5319L14.5747 21.102ZM7.96622 24.4803L7.05478 23.2889L7.05478 23.2889L7.96622 24.4803ZM3.55057 29.5362L4.86965 30.2503L4.86965 30.2503L3.55057 29.5362ZM2 35.5H0.5V37H2V35.5ZM3 35.5V37H4.5L4.5 35.5L3 35.5ZM4.42996 30.0123L3.11088 29.2981L3.11088 29.2981L4.42996 30.0123ZM8.57385 25.2745L7.66241 24.0832L7.66241 24.0832L8.57385 25.2745ZM22.2473 20.4158C27.4707 20.4158 31.7051 16.1813 31.7051 10.9579H28.7051C28.7051 14.5245 25.8138 17.4158 22.2473 17.4158V20.4158ZM12.7894 10.9579C12.7894 16.1813 17.0238 20.4158 22.2473 20.4158V17.4158C18.6807 17.4158 15.7894 14.5245 15.7894 10.9579H12.7894ZM22.2473 1.5C17.0238 1.5 12.7894 5.73443 12.7894 10.9579H15.7894C15.7894 7.39129 18.6807 4.5 22.2473 4.5V1.5ZM31.7051 10.9579C31.7051 5.73443 27.4707 1.5 22.2473 1.5V4.5C25.8138 4.5 28.7051 7.39129 28.7051 10.9579H31.7051ZM22.2473 21.4158C28.023 21.4158 32.7051 16.7336 32.7051 10.9579H29.7051C29.7051 15.0767 26.3661 18.4158 22.2473 18.4158V21.4158ZM11.7894 10.9579C11.7894 16.7336 16.4715 21.4158 22.2473 21.4158V18.4158C18.1284 18.4158 14.7894 15.0767 14.7894 10.9579H11.7894ZM22.2473 0.5C16.4715 0.5 11.7894 5.18215 11.7894 10.9579H14.7894C14.7894 6.839 18.1284 3.5 22.2473 3.5V0.5ZM32.7051 10.9579C32.7051 5.18215 28.023 0.5 22.2473 0.5V3.5C26.3661 3.5 29.7051 6.839 29.7051 10.9579H32.7051ZM22.37 19.4158C19.6453 19.4158 16.9455 19.8262 14.4237 20.6254L15.3299 23.4852C17.5493 22.7819 19.943 22.4158 22.37 22.4158V19.4158ZM30.3163 20.6254C27.7945 19.8262 25.0946 19.4158 22.37 19.4158V22.4158C24.797 22.4158 27.1906 22.7819 29.41 23.4852L30.3163 20.6254ZM37.0775 24.0832C35.1362 22.5979 32.8379 21.4245 30.3163 20.6254L29.41 23.4852C31.6301 24.1888 33.6123 25.2093 35.2546 26.4658L37.0775 24.0832ZM41.629 29.2981C40.5683 27.339 39.019 25.5685 37.0775 24.0832L35.2546 26.4658C36.8965 27.7219 38.1523 29.1776 38.9909 30.7264L41.629 29.2981ZM43.2399 35.5C43.2399 33.3661 42.6903 31.2582 41.629 29.2981L38.9909 30.7264C39.827 32.2708 40.2399 33.8903 40.2399 35.5H43.2399ZM42.7399 34H41.7399V37H42.7399V34ZM39.8703 30.2503C40.7814 31.9333 41.2399 33.7156 41.2399 35.5H44.2399C44.2399 33.1913 43.6446 30.9206 42.5084 28.822L39.8703 30.2503ZM35.8623 25.6716C37.604 27.0041 38.9577 28.5647 39.8703 30.2503L42.5084 28.822C41.3737 26.7261 39.7265 24.8507 37.6851 23.2889L35.8623 25.6716ZM29.7121 22.5319C32.0327 23.2674 34.1203 24.3389 35.8623 25.6716L37.6851 23.2889C35.6441 21.7274 33.2405 20.5031 30.6183 19.6721L29.7121 22.5319ZM22.37 21.4158C24.8962 21.4158 27.3919 21.7967 29.7121 22.5319L30.6183 19.6721C27.9958 18.841 25.1938 18.4158 22.37 18.4158V21.4158ZM15.0279 22.5319C17.3481 21.7967 19.8437 21.4158 22.37 21.4158V18.4158C19.5461 18.4158 16.7442 18.841 14.1216 19.6721L15.0279 22.5319ZM8.87766 25.6716C10.6197 24.3389 12.7072 23.2674 15.0279 22.5319L14.1216 19.6721C11.4994 20.5031 9.09582 21.7274 7.05478 23.2889L8.87766 25.6716ZM4.86965 30.2503C5.78225 28.5647 7.13594 27.0041 8.87766 25.6716L7.05478 23.2889C5.01345 24.8507 3.36626 26.7261 2.23149 28.822L4.86965 30.2503ZM3.5 35.5C3.5 33.7156 3.95848 31.9333 4.86965 30.2503L2.23149 28.822C1.09528 30.9206 0.5 33.1913 0.5 35.5H3.5ZM3 34H2V37H3V34ZM3.11088 29.2981C2.04967 31.2582 1.5 33.3661 1.5 35.5L4.5 35.5C4.5 33.8903 4.9129 32.2708 5.74903 30.7264L3.11088 29.2981ZM7.66241 24.0832C5.72093 25.5685 4.17158 27.339 3.11088 29.2981L5.74903 30.7264C6.58759 29.1776 7.84345 27.7219 9.48529 26.4658L7.66241 24.0832ZM14.4237 20.6254C11.902 21.4245 9.60377 22.5979 7.66241 24.0832L9.48529 26.4658C11.1276 25.2093 13.1098 24.1888 15.3299 23.4852L14.4237 20.6254Z" fill="#209B90"/>
</svg>
